<svg width="800" height="800" viewBox="0 0 800 800" fill="none" xmlns="http://www.w3.org/2000/svg">
<g clip-path="url(#clip0_6_2)">
<path d="M800 0H0V800H800V0Z" fill="#141414"/>
<path d="M399.5 264.23C371.704 230.36 328.856 196.489 222.663 194.004C215.688 193.841 210 199.265 210 205.945C210 255.498 210 443.102 210 498.585C210 505.264 215.689 510.511 222.662 510.728C328.856 514.052 371.704 559.129 399.5 593M399.5 264.23C427.296 230.36 470.143 196.489 576.336 194.004C583.312 193.841 589 199.143 589 205.823C589 261.216 589 443.174 589 498.568C589 505.247 583.312 510.511 576.339 510.728C470.146 514.052 427.296 559.129 399.5 593M399.5 264.23V593" stroke="white" stroke-width="33.3333" stroke-linejoin="round"/>
<path d="M583.053 242H640.35C647.335 242 653 247.432 653 254.133V570.546C653 580.365 640.939 586.888 631.584 582.901C611.467 574.327 577.897 563.854 533.941 563.854C459.528 563.854 400 606 400 606C400 606 340.471 563.854 266.059 563.854C222.102 563.854 188.531 574.327 168.416 582.901C159.06 586.888 147 580.365 147 570.546V254.133C147 247.432 152.664 242 159.65 242H216.947" stroke="white" stroke-width="33.3333" stroke-linejoin="round"/>
</g>
<defs>
<clipPath id="clip0_6_2">
<rect width="800" height="800" fill="white"/>
</clipPath>
</defs>
</svg>
